<svg width="84" height="63" viewBox="0 0 84 63" fill="none" xmlns="http://www.w3.org/2000/svg">
<path d="M36.24 7.79999C36.22 7.24999 35.73 6.82999 35.2 6.83999C11.53 7.86999 8.01996 28.34 7.98996 28.55C7.89996 29.1 8.27996 29.61 8.81996 29.69C8.86996 29.7 8.92996 29.7 8.97996 29.7C9.45996 29.7 9.88996 29.35 9.96996 28.86C9.99996 28.67 13.24 9.79999 35.29 8.83999C35.83 8.80999 36.26 8.34999 36.24 7.79999Z" fill="black"/>
<path d="M76.47 21.79C77.19 22.26 78.05 22.54 78.98 22.54C81.54 22.54 83.62 20.46 83.62 17.9C83.62 15.34 81.54 13.25 78.98 13.25C76.42 13.25 74.34 15.33 74.34 17.9C74.34 18.81 74.61 19.66 75.07 20.38L69.03 26.2H64.49L65.78 22.94C65.92 22.95 66.05 22.98 66.2 22.98C68.54 22.98 70.44 21.08 70.44 18.74C70.44 16.4 68.54 14.5 66.2 14.5C63.86 14.5 61.96 16.4 61.96 18.74C61.96 20.22 62.73 21.53 63.89 22.28L62.34 26.19H45.77C54.57 18.96 55.19 7.64999 55.21 7.12999C55.23 6.75999 55.04 6.40999 54.72 6.21999C36.25 -4.72001 21.55 2.9 18.79 4.54C18.54 4.69 18.29 4.82999 18.04 4.96999C5.03997 12.29 1.72997 24.16 1.58997 24.69C-4.43003 49.54 13.72 59.65 13.9 59.75C17.52 61.69 21.25 62.65 25.07 62.65C28.04 62.65 31.06 62.06 34.12 60.89C39.02 59 43.04 55.39 45.52 50.79L49.33 55.22V61.64C49.33 62.07 49.6 62.45 50.01 62.59C50.11 62.63 50.22 62.64 50.33 62.64C50.64 62.64 50.93 62.5 51.13 62.24L59.05 51.8C59.33 51.43 59.32 50.91 59.02 50.55L52.12 42.39H52.47C53.71 42.73 65.29 46.09 67.58 52.9C67.51 54.83 68.15 56.7 69.4 58.18C71.27 60.39 76.41 61.49 80.39 62.02C80.5 62.03 80.61 62.04 80.72 62.04C81.3 62.04 81.86 61.84 82.3 61.46C82.32 61.45 82.33 61.43 82.34 61.42C82.35 61.41 82.35 61.41 82.36 61.41C82.37 61.4 82.38 61.39 82.39 61.37C82.86 60.93 83.15 60.32 83.16 59.67C83.28 55.66 83.02 50.41 81.15 48.2C79.82 46.63 77.95 45.67 75.9 45.51C75.23 45.46 74.57 45.5 73.92 45.61C71.96 42.41 67.59 39.67 65.42 38.45C66.44 37.52 67.34 36.47 68.08 35.3H72.96C73.51 35.3 73.96 34.85 73.96 34.3C73.96 33.75 73.51 33.3 72.96 33.3H69.15C69.92 31.56 70.36 29.65 70.42 27.65L76.47 21.79ZM78.98 15.25C80.44 15.25 81.62 16.44 81.62 17.9C81.62 19.36 80.43 20.54 78.98 20.54C78.36 20.54 77.79 20.31 77.34 19.95C77.3 19.87 77.26 19.78 77.19 19.71C77.11 19.63 77.02 19.57 76.92 19.52C76.56 19.07 76.34 18.51 76.34 17.89C76.33 16.44 77.52 15.25 78.98 15.25ZM66.19 16.51C67.42 16.51 68.43 17.51 68.43 18.75C68.43 19.99 67.43 20.99 66.19 20.99C65.96 20.99 65.74 20.95 65.54 20.88C65.53 20.88 65.53 20.87 65.52 20.87C65.51 20.87 65.49 20.87 65.48 20.86C64.59 20.56 63.95 19.73 63.95 18.75C63.95 17.51 64.95 16.51 66.19 16.51ZM44.85 47.47C42.84 52.78 38.66 56.99 33.39 59.02C26.98 61.49 20.74 61.14 14.84 57.99C14.14 57.61 -2.12003 48.48 3.51997 25.2C3.54997 25.08 6.76997 13.62 19.01 6.72999C19.28 6.57999 19.54 6.43 19.8 6.27C21.34 5.35 26.88 2.44 34.81 2.44C40.03 2.44 46.3 3.69999 53.15 7.63999C52.87 10.21 51.23 20.5 42.44 26.14C36.63 20.93 29.26 22.7 26.07 23.85C23.71 24.7 21.68 26.08 20.19 27.85C17.43 31.12 16.65 35.24 17.95 39.76C19.3 44.46 23.35 47.88 28.04 48.28C29.35 48.39 30.63 48.26 31.84 47.89C35.79 46.68 38.42 42.98 38.25 38.88C38.13 36 36.39 33.68 33.37 32.34C31.24 31.39 28.91 31.43 26.98 32.44C23.35 34.34 23.67 38.29 24.35 40.12C24.54 40.64 25.11 40.9 25.63 40.71C26.15 40.52 26.41 39.95 26.22 39.43C26.17 39.28 24.93 35.77 27.9 34.22C29.28 33.5 30.98 33.48 32.55 34.18C34.91 35.23 36.15 36.84 36.24 38.98C36.37 42.12 34.27 45.07 31.25 46C30.28 46.29 29.26 46.4 28.2 46.31C24.34 45.98 20.99 43.13 19.86 39.23C18.74 35.32 19.36 31.94 21.7 29.16C22.97 27.66 24.71 26.48 26.73 25.75C30.76 24.3 38.28 22.95 43.3 30.18C43.48 30.44 43.65 30.72 43.8 31.01L43.88 31.16C46.54 36.19 46.88 42.14 44.85 47.47ZM56.96 51.23L51.32 58.66V54.84C51.32 54.6 51.23 54.37 51.08 54.19L46.45 48.81C46.54 48.6 46.65 48.4 46.73 48.18C47.44 46.3 47.88 44.36 48.07 42.39H49.49L56.96 51.23ZM73.31 47.84C73.36 47.85 73.4 47.86 73.45 47.86C73.59 47.86 73.73 47.83 73.87 47.77C73.94 47.74 73.99 47.69 74.04 47.64C74.59 47.52 75.15 47.46 75.72 47.5C77.24 47.62 78.62 48.33 79.61 49.5C80.65 50.72 81.21 54.1 81.16 58.65L76.47 53.54C76.1 53.13 75.46 53.11 75.06 53.48C74.65 53.85 74.63 54.49 75 54.89L79.59 59.89C75.15 59.2 71.94 58.1 70.91 56.89C69.94 55.75 69.47 54.3 69.57 52.81C69.67 51.26 70.39 49.85 71.57 48.84C72.09 48.39 72.68 48.07 73.31 47.84ZM71.92 46.25C71.33 46.53 70.77 46.89 70.26 47.32C69.41 48.04 68.75 48.92 68.29 49.89C65.89 46.17 61.35 43.66 57.81 42.16C59.96 41.79 61.97 40.98 63.71 39.8C65.17 40.58 69.84 43.25 71.92 46.25ZM66.91 33.29H59.5C58.95 33.29 58.5 33.74 58.5 34.29C58.5 34.84 58.95 35.29 59.5 35.29H65.63C63.21 38.39 59.45 40.39 55.23 40.39H48.16C48.17 36.87 47.34 33.36 45.68 30.16L45.62 30.04C45.42 29.67 45.21 29.32 45 29.01C44.79 28.71 44.58 28.46 44.37 28.19H63.03H68.4C68.25 30.02 67.73 31.75 66.91 33.29Z" fill="black"/>
</svg>
